<mxfile host="65bd71144e">
    <diagram id="LwRIZjvbnNOm_z4AOkWB" name="第 1 页">
        <mxGraphModel dx="1002" dy="576" grid="0" gridSize="10" guides="1" tooltips="1" connect="1" arrows="1" fold="1" page="0" pageScale="1" pageWidth="827" pageHeight="1169" math="0" shadow="0">
            <root>
                <mxCell id="0"/>
                <mxCell id="1" parent="0"/>
                <mxCell id="2" value="&lt;font color=&quot;#ff8000&quot; style=&quot;font-size: 16px;&quot;&gt;10MB&lt;/font&gt;" style="rounded=0;whiteSpace=wrap;html=1;" vertex="1" parent="1">
                    <mxGeometry x="195" y="131" width="156" height="48" as="geometry"/>
                </mxCell>
                <mxCell id="4" value="&lt;font color=&quot;#ff8000&quot; style=&quot;font-size: 16px;&quot;&gt;P&lt;sub&gt;A&lt;/sub&gt;&lt;/font&gt;" style="rounded=0;whiteSpace=wrap;html=1;" vertex="1" parent="1">
                    <mxGeometry x="195" y="179" width="156" height="74" as="geometry"/>
                </mxCell>
                <mxCell id="5" value="&lt;font color=&quot;#ff8000&quot; style=&quot;font-size: 16px;&quot;&gt;15MB&lt;/font&gt;" style="rounded=0;whiteSpace=wrap;html=1;" vertex="1" parent="1">
                    <mxGeometry x="195" y="253" width="156" height="62" as="geometry"/>
                </mxCell>
                <mxCell id="6" value="&lt;font color=&quot;#ff8000&quot; style=&quot;font-size: 16px;&quot;&gt;P&lt;sub&gt;B&lt;/sub&gt;&lt;/font&gt;" style="rounded=0;whiteSpace=wrap;html=1;" vertex="1" parent="1">
                    <mxGeometry x="195" y="315" width="156" height="37" as="geometry"/>
                </mxCell>
                <mxCell id="7" value="&lt;font color=&quot;#ff8000&quot; style=&quot;font-size: 16px;&quot;&gt;8MB&lt;/font&gt;" style="rounded=0;whiteSpace=wrap;html=1;" vertex="1" parent="1">
                    <mxGeometry x="195" y="352" width="156" height="48" as="geometry"/>
                </mxCell>
                <mxCell id="8" value="&lt;font color=&quot;#ff8000&quot; style=&quot;font-size: 16px;&quot;&gt;P&lt;/font&gt;&lt;font color=&quot;#ff8000&quot; style=&quot;font-size: 13.3333px;&quot;&gt;&lt;sub&gt;C&lt;/sub&gt;&lt;/font&gt;" style="rounded=0;whiteSpace=wrap;html=1;" vertex="1" parent="1">
                    <mxGeometry x="195" y="400" width="156" height="56" as="geometry"/>
                </mxCell>
                <mxCell id="9" value="" style="endArrow=none;html=1;fontSize=16;fontColor=#FF8000;" edge="1" parent="1">
                    <mxGeometry width="50" height="50" relative="1" as="geometry">
                        <mxPoint x="195" y="68" as="sourcePoint"/>
                        <mxPoint x="195" y="507" as="targetPoint"/>
                    </mxGeometry>
                </mxCell>
                <mxCell id="10" value="" style="endArrow=none;html=1;fontSize=16;fontColor=#FF8000;" edge="1" parent="1">
                    <mxGeometry width="50" height="50" relative="1" as="geometry">
                        <mxPoint x="350" y="64.5" as="sourcePoint"/>
                        <mxPoint x="350" y="503.5" as="targetPoint"/>
                    </mxGeometry>
                </mxCell>
                <mxCell id="11" value="P&lt;sub&gt;D&lt;/sub&gt;&amp;nbsp;需要16MB" style="text;html=1;align=center;verticalAlign=middle;resizable=0;points=[];autosize=1;strokeColor=none;fillColor=none;fontSize=16;fontColor=#FF8000;" vertex="1" parent="1">
                    <mxGeometry x="442" y="151" width="117" height="35" as="geometry"/>
                </mxCell>
                <mxCell id="12" value="" style="endArrow=classic;startArrow=classic;html=1;fontSize=16;fontColor=#FF8000;curved=1;" edge="1" parent="1">
                    <mxGeometry width="50" height="50" relative="1" as="geometry">
                        <mxPoint x="353" y="279" as="sourcePoint"/>
                        <mxPoint x="353" y="133" as="targetPoint"/>
                        <Array as="points">
                            <mxPoint x="486" y="217"/>
                        </Array>
                    </mxGeometry>
                </mxCell>
                <mxCell id="13" value="6MB" style="text;html=1;align=center;verticalAlign=middle;resizable=0;points=[];autosize=1;strokeColor=none;fillColor=none;fontSize=16;fontColor=#FF8000;" vertex="1" parent="1">
                    <mxGeometry x="347" y="238" width="51" height="31" as="geometry"/>
                </mxCell>
                <mxCell id="14" value="&lt;font color=&quot;#ff8000&quot; style=&quot;font-size: 16px;&quot;&gt;P&lt;sub&gt;B&lt;/sub&gt;&lt;/font&gt;" style="rounded=0;whiteSpace=wrap;html=1;" vertex="1" parent="1">
                    <mxGeometry x="647" y="280" width="156" height="37" as="geometry"/>
                </mxCell>
                <mxCell id="15" value="&lt;font color=&quot;#ff8000&quot; style=&quot;font-size: 16px;&quot;&gt;8MB&lt;/font&gt;" style="rounded=0;whiteSpace=wrap;html=1;" vertex="1" parent="1">
                    <mxGeometry x="647" y="317" width="156" height="48" as="geometry"/>
                </mxCell>
                <mxCell id="16" value="&lt;font color=&quot;#ff8000&quot; style=&quot;font-size: 16px;&quot;&gt;P&lt;/font&gt;&lt;font color=&quot;#ff8000&quot; style=&quot;font-size: 13.3333px;&quot;&gt;&lt;sub&gt;C&lt;/sub&gt;&lt;/font&gt;" style="rounded=0;whiteSpace=wrap;html=1;" vertex="1" parent="1">
                    <mxGeometry x="647" y="365" width="156" height="56" as="geometry"/>
                </mxCell>
                <mxCell id="17" value="" style="endArrow=none;html=1;fontSize=16;fontColor=#FF8000;" edge="1" parent="1">
                    <mxGeometry width="50" height="50" relative="1" as="geometry">
                        <mxPoint x="647" y="186" as="sourcePoint"/>
                        <mxPoint x="647" y="478" as="targetPoint"/>
                    </mxGeometry>
                </mxCell>
                <mxCell id="18" value="" style="endArrow=none;html=1;fontSize=16;fontColor=#FF8000;" edge="1" parent="1">
                    <mxGeometry width="50" height="50" relative="1" as="geometry">
                        <mxPoint x="803" y="191" as="sourcePoint"/>
                        <mxPoint x="803" y="483" as="targetPoint"/>
                    </mxGeometry>
                </mxCell>
                <mxCell id="19" value="P&lt;sub&gt;D&lt;/sub&gt;&amp;nbsp;需要6MB" style="text;html=1;align=center;verticalAlign=middle;resizable=0;points=[];autosize=1;strokeColor=none;fillColor=none;fontSize=16;fontColor=#FF8000;" vertex="1" parent="1">
                    <mxGeometry x="842" y="144" width="108" height="35" as="geometry"/>
                </mxCell>
                <mxCell id="20" value="" style="endArrow=classic;startArrow=classic;html=1;fontSize=16;fontColor=#FF8000;curved=1;" edge="1" parent="1">
                    <mxGeometry width="50" height="50" relative="1" as="geometry">
                        <mxPoint x="807" y="345" as="sourcePoint"/>
                        <mxPoint x="803" y="318" as="targetPoint"/>
                        <Array as="points">
                            <mxPoint x="841" y="328"/>
                        </Array>
                    </mxGeometry>
                </mxCell>
                <mxCell id="21" value="6MB" style="text;html=1;align=center;verticalAlign=middle;resizable=0;points=[];autosize=1;strokeColor=none;fillColor=none;fontSize=16;fontColor=#FF8000;" vertex="1" parent="1">
                    <mxGeometry x="815" y="292" width="51" height="31" as="geometry"/>
                </mxCell>
                <mxCell id="22" value="external fragmentation" style="text;html=1;align=center;verticalAlign=middle;resizable=0;points=[];autosize=1;strokeColor=none;fillColor=none;fontSize=16;fontColor=#FF8000;" vertex="1" parent="1">
                    <mxGeometry x="176" y="522" width="177" height="31" as="geometry"/>
                </mxCell>
                <mxCell id="23" value="internal fragmentation" style="text;html=1;align=center;verticalAlign=middle;resizable=0;points=[];autosize=1;strokeColor=none;fillColor=none;fontSize=16;fontColor=#FF8000;" vertex="1" parent="1">
                    <mxGeometry x="649" y="518" width="173" height="31" as="geometry"/>
                </mxCell>
            </root>
        </mxGraphModel>
    </diagram>
</mxfile>